<svg width="32" height="32" viewBox="0 0 32 32" fill="none" xmlns="http://www.w3.org/2000/svg">
<g clip-path="url(#clip0_24_2133)">
<path d="M26.2491 26.2527C31.9115 20.5903 31.9115 11.4097 26.2491 5.74735C20.5868 0.0849652 11.4062 0.0849659 5.74386 5.74735C0.0814769 11.4097 0.0814769 20.5903 5.74386 26.2527C11.4062 31.915 20.5868 31.915 26.2491 26.2527Z" fill="white"/>
<path d="M11.0299 2.37262C5.46873 4.40137 1.49829 9.73693 1.49829 16C1.49829 24.0091 7.99092 30.5016 15.9999 30.5016C19.6864 30.5016 23.051 29.1252 25.6096 26.8593C8.5041 24.9689 7.60642 8.71831 11.0299 2.37262Z" fill="white"/>
<path d="M27.906 24.2797H21.3696C22.8273 21.4885 23.7274 18.5006 23.7274 16C23.7274 13.4994 22.8273 10.5114 21.3696 7.72029H27.906C27.6816 7.39817 27.4452 7.08511 27.196 6.78279H20.8546C19.7079 4.79498 18.2873 2.95292 16.7241 1.51635C16.4842 1.50454 16.2428 1.49829 16 1.49829C15.7571 1.49829 15.5158 1.50454 15.2758 1.51635C13.7126 2.95285 12.2921 4.79504 11.1454 6.78279H4.80399C4.55481 7.08511 4.31843 7.39817 4.09399 7.72029H10.6304C9.17281 10.5114 8.27262 13.4994 8.27262 16C8.27262 18.5006 9.17281 21.4885 10.6304 24.2797H4.09399C4.31843 24.6018 4.55481 24.9149 4.80399 25.2172H11.1454C12.2921 27.205 13.7127 29.0471 15.2758 30.4836C15.5158 30.4954 15.7571 30.5017 16 30.5017C16.2429 30.5017 16.4843 30.4954 16.7241 30.4836C18.2873 29.0471 19.7079 27.205 20.8546 25.2172H27.196C27.4451 24.9149 27.6816 24.6017 27.906 24.2797ZM16 2.1231C17.3754 3.36723 18.6722 4.97479 19.7681 6.78286H12.2319C13.3278 4.97479 14.6246 3.36717 16 2.1231ZM16 29.8769C14.6246 28.6327 13.3278 27.0252 12.2319 25.2171H19.7681C18.6722 27.0252 17.3754 28.6328 16 29.8769ZM20.7526 23.4293C20.6098 23.7163 20.4614 23.9998 20.3083 24.2796H11.6917C11.5386 23.9998 11.3902 23.7163 11.2474 23.4293C9.93362 20.7887 9.21006 18.1502 9.21006 16C9.21006 13.8497 9.93356 11.2112 11.2474 8.57067C11.3902 8.28367 11.5386 8.00017 11.6917 7.72029H20.3083C20.4614 8.00011 20.6098 8.28361 20.7526 8.57067C22.0664 11.2112 22.7899 13.8497 22.7899 16C22.7899 18.1502 22.0664 20.7887 20.7526 23.4293Z" fill="#4579FF"/>
<path d="M30.171 12.4443H1.829C0.818875 12.4443 0 13.2632 0 14.2733V18.5241C0 19.5343 0.818875 20.3531 1.829 20.3531H30.171C31.1811 20.3531 32 19.5343 32 18.5241V14.2733C32 13.2632 31.1811 12.4443 30.171 12.4443Z" fill="#7DA1FF"/>
<path d="M1.829 12.4443C0.818875 12.4443 0 13.2632 0 14.2733V18.5241C0 19.5343 0.818875 20.3531 1.829 20.3531H17.2298C15.2876 19.0658 14.4678 15.5281 15.2768 12.4443H1.829Z" fill="#4579FF"/>
<path d="M17.3318 18.2982C17.1347 18.2982 16.9587 18.175 16.8913 17.9898L16 15.541L15.1087 17.9898C15.0412 18.175 14.8652 18.2983 14.6682 18.2983C14.4711 18.2983 14.2951 18.175 14.2277 17.9898L12.8958 14.3308C12.8073 14.0875 12.9327 13.8185 13.176 13.73C13.4193 13.6415 13.6882 13.7669 13.7768 14.0101L14.6682 16.459L15.5595 14.0101C15.6269 13.8249 15.8029 13.7017 16 13.7017C16.197 13.7017 16.3731 13.8249 16.4405 14.0101L17.3318 16.459L18.2231 14.0101C18.3116 13.7668 18.5804 13.6415 18.8239 13.73C19.0672 13.8185 19.1926 14.0875 19.104 14.3308L17.7722 17.9898C17.7048 18.175 17.5288 18.2982 17.3318 18.2982Z" fill="white"/>
<path d="M10.1687 18.2982C9.97168 18.2982 9.79568 18.175 9.72824 17.9898L8.83693 15.5409L7.94562 17.9898C7.87818 18.175 7.70218 18.2982 7.50512 18.2982C7.30806 18.2982 7.13206 18.175 7.06462 17.9898L5.73287 14.3307C5.64431 14.0874 5.76975 13.8185 6.01306 13.7299C6.25625 13.6414 6.52525 13.7668 6.61387 14.01L7.50518 16.4589L8.39649 14.01C8.46393 13.8248 8.63993 13.7016 8.83699 13.7016C9.03406 13.7016 9.21006 13.8248 9.27749 14.01L10.1688 16.4589L11.0601 14.01C11.1486 13.7667 11.4177 13.6415 11.6609 13.7299C11.9042 13.8185 12.0296 14.0875 11.9411 14.3307L10.6093 17.9898C10.5418 18.175 10.3658 18.2982 10.1687 18.2982Z" fill="white"/>
<path d="M24.4947 18.2982C24.2977 18.2982 24.1216 18.175 24.0542 17.9898L23.1629 15.5409L22.2716 17.9898C22.2042 18.175 22.0282 18.2982 21.8311 18.2982C21.634 18.2982 21.458 18.175 21.3906 17.9898L20.0588 14.3307C19.9702 14.0874 20.0957 13.8185 20.3389 13.7299C20.5822 13.6415 20.8512 13.7669 20.9397 14.0101L21.8311 16.4589L22.7224 14.0101C22.7897 13.8249 22.9658 13.7016 23.1629 13.7016C23.3599 13.7016 23.536 13.8249 23.6034 14.0101L24.4947 16.4589L25.386 14.0101C25.4745 13.7668 25.7433 13.6415 25.9868 13.7299C26.2301 13.8185 26.3556 14.0875 26.2669 14.3307L24.9351 17.9898C24.8679 18.1751 24.6918 18.2982 24.4947 18.2982Z" fill="white"/>
</g>
<defs>
<clipPath id="clip0_24_2133">
<rect width="32" height="32" fill="white"/>
</clipPath>
</defs>
</svg>
