<svg width="91" height="90" viewBox="0 0 91 90" fill="none" xmlns="http://www.w3.org/2000/svg">
<rect x="0.5" width="90" height="90" rx="45" fill="#ECF1FF"/>
<path d="M35.1235 50.4409V54.3388H27.0842L32.7777 51.5778L35.1235 50.4409Z" fill="#FFCEBF"/>
<path d="M35.1228 50.4409L34.8777 53.3503H33.7978L33.1145 52.1647C32.9245 51.8344 32.5288 51.7045 32.1924 51.8615L32.777 51.5778L35.1228 50.4409Z" fill="#FFB09E"/>
<path d="M41.754 48.1108V64.6035H34.8776V53.3503C34.8776 51.1945 33.7811 49.2011 31.9971 48.1108L36.8755 47.346L41.754 48.1108Z" fill="#DDEAFB"/>
<path d="M41.7543 48.1108V64.6035H38.8789V48.1108L40.3166 47.346L41.7543 48.1108Z" fill="#CBE2FF"/>
<path d="M44.8255 60.3038C44.4994 60.6427 44.0508 60.8528 43.5534 60.8528C44.5472 60.8528 45.3519 61.6919 45.3519 62.7281C45.3519 63.2467 45.1505 63.7145 44.8255 64.0545C44.4994 64.3934 44.0508 64.6034 43.5534 64.6034C44.5472 64.6034 45.3519 65.4437 45.3519 66.4788C45.3519 66.9974 45.1505 67.4652 44.8255 67.8052C44.4994 68.1441 44.0508 68.3541 43.5534 68.3541H30.9897C29.9139 68.3541 28.8536 68.0932 27.891 67.5919C27.4103 67.3418 26.9056 67.1501 26.3843 67.0223C25.8651 66.8946 25.3313 66.8285 24.7935 66.8285L23.936 59.1842L24.7935 53.3514H41.7549V53.3503H43.5534C44.5472 53.3503 45.3519 54.1905 45.3519 55.2256C45.3519 55.7432 45.1505 56.2131 44.8255 56.552C44.4994 56.8909 44.0508 57.101 43.5534 57.101C44.5472 57.101 45.3519 57.9412 45.3519 58.9774C45.3519 59.495 45.1505 59.9638 44.8255 60.3038Z" fill="#FFCEBF"/>
<path d="M44.825 60.3038C44.499 60.6427 44.0504 60.8528 43.553 60.8528C44.5467 60.8528 45.3515 61.6919 45.3515 62.7281C45.3515 63.2467 45.15 63.7145 44.825 64.0545C44.499 64.3934 44.0504 64.6034 43.553 64.6034C44.5467 64.6034 45.3515 65.4437 45.3515 66.4788C45.3515 66.9974 45.15 67.4652 44.825 67.8052C44.499 68.1441 44.0504 68.3541 43.553 68.3541H41.0037C41.5011 68.3541 41.9497 68.1441 42.2757 67.8052C42.6007 67.4652 42.8022 66.9974 42.8022 66.4788C42.8022 65.4437 41.9974 64.6034 41.0037 64.6034C41.5011 64.6034 41.9497 64.3934 42.2757 64.0545C42.6007 63.7145 42.8022 63.2467 42.8022 62.7281C42.8022 61.6919 41.9974 60.8528 41.0037 60.8528C41.5011 60.8528 41.9497 60.6427 42.2757 60.3038C42.6007 59.9638 42.8022 59.495 42.8022 58.9774C42.8022 57.9412 41.9974 57.101 41.0037 57.101C41.5011 57.101 41.9497 56.8909 42.2757 56.552C42.6007 56.2131 42.8022 55.7432 42.8022 55.2256C42.8022 54.2067 42.0223 53.3774 41.0504 53.3514H41.7544V53.3503H43.553C44.5467 53.3503 45.3515 54.1905 45.3515 55.2256C45.3515 55.7432 45.15 56.2131 44.825 56.552C44.499 56.8909 44.0504 57.101 43.553 57.101C44.5467 57.101 45.3515 57.9412 45.3515 58.9774C45.3515 59.495 45.15 59.9638 44.825 60.3038Z" fill="#FFB09E"/>
<path d="M41.0506 53.3513H39.2053V53.3503H41.0038C41.0194 53.3503 41.035 53.3503 41.0506 53.3513Z" fill="#FFCEBF"/>
<path d="M19.6956 53.3514H24.7931V68.3542H19.6956V53.3514Z" fill="#BEFFE0"/>
<path d="M24.7929 53.3514V68.3542H21.5818L22.2436 68.1712V53.3514H24.7929Z" fill="#8DFFC8"/>
<path d="M62.3844 43.1334L61.8032 39.5732L62.3844 36.013C64.0572 36.013 65.4134 37.427 65.4134 39.1713V39.9752C65.4134 41.7195 64.0572 43.1334 62.3844 43.1334Z" fill="#DDEAFB"/>
<path d="M62.3844 24.5997V54.5468C62.3844 56.1785 61.1154 57.5005 59.5506 57.5005C58.7582 57.5005 57.9753 57.3782 57.2276 57.1432C57.0864 57.0999 56.9473 57.0512 56.8092 56.9992C55.9369 56.6701 55.1197 56.1828 54.3959 55.5537L45.8352 48.1108L45.3513 39.7813L45.8352 31.0356L54.3959 23.5927C55.2339 22.864 56.1986 22.3258 57.2276 22.0032C57.9753 21.7682 58.7582 21.6459 59.5506 21.6459C60.3325 21.6459 61.0417 21.9761 61.5547 22.511C62.0666 23.0459 62.3844 23.7843 62.3844 24.5997Z" fill="#4579FF"/>
<path d="M62.3843 24.5997V54.5468C62.3843 56.1785 61.1154 57.5005 59.5505 57.5005C58.7582 57.5005 57.9752 57.3782 57.2275 57.1432C58.1102 56.643 58.7094 55.6685 58.7094 54.5468V24.5997C58.7094 23.7843 58.3926 23.0459 57.8797 22.511C57.6876 22.3107 57.4685 22.1396 57.2275 22.0032C57.9752 21.7682 58.7582 21.6459 59.5505 21.6459C60.3324 21.6459 61.0416 21.9761 61.5546 22.511C62.0665 23.0459 62.3843 23.7843 62.3843 24.5997Z" fill="#2E5DD6"/>
<path d="M45.8352 31.0356V48.1108H31.9132L31.1033 39.5732L31.9132 31.0356H45.8352Z" fill="#5CFFB1"/>
<path d="M43.0432 31.0356H45.8355V48.1108H43.0432V31.0356Z" fill="#43D68F"/>
<path d="M35.5886 35.4935H42.1602V38.5147H35.5886V35.4935Z" fill="#2E5DD6"/>
<path d="M31.9135 31.0356V48.1108H27.8055C26.7287 48.1108 25.8564 47.2013 25.8564 46.0785V33.068C25.8564 31.9451 26.7287 31.0356 27.8055 31.0356H31.9135Z" fill="#B4C9FF"/>
<path d="M29.1226 31.0356H31.9138V48.1108H29.1226V31.0356Z" fill="#7DA1FF"/>
<path d="M63.1631 35.2847V24.5995C63.1631 22.5228 61.5428 20.8333 59.5512 20.8333C57.4891 20.8333 55.4811 21.5917 53.8972 22.9689L45.5534 30.2233H38.0929C37.6627 30.2233 37.3141 30.5869 37.3141 31.0354C37.3141 31.4838 37.6627 31.8474 38.0929 31.8474H45.0565V47.2992L32.6928 47.2989V31.8473H34.4584C34.8887 31.8473 35.2373 31.4837 35.2373 31.0353C35.2373 30.5868 34.8887 30.2232 34.4584 30.2232H27.8058C26.3013 30.2232 25.0773 31.4994 25.0773 33.0681V46.0783C25.0773 47.647 26.3013 48.9233 27.8058 48.9233H31.7782C32.3736 49.3216 32.8762 49.839 33.2618 50.4481L28.948 52.5394L19.6956 52.5389C19.2653 52.5389 18.9167 52.9024 18.9167 53.3509V57.1432C18.9167 57.5917 19.2653 57.9553 19.6956 57.9553C20.1258 57.9553 20.4744 57.5917 20.4744 57.1432V54.163H24.0143V67.5426H20.4744V60.9527C20.4744 60.5042 20.1258 60.1406 19.6956 60.1406C19.2653 60.1406 18.9167 60.5042 18.9167 60.9527V68.3547C18.9167 68.8032 19.2653 69.1668 19.6956 69.1668H24.7931C25.2233 69.1668 25.5719 68.8032 25.5719 68.3547V67.6944C27.4769 67.9496 28.9989 69.1662 30.9893 69.1662H43.5531C45.783 69.1662 46.9547 66.2706 45.3985 64.6046C46.3611 63.5738 46.3614 61.8848 45.3985 60.8539C46.3612 59.8229 46.3614 58.1335 45.3984 57.1024C46.9545 55.4398 45.7834 52.5383 43.5531 52.5383H42.5333V48.9233H45.5535L53.8971 56.1775C55.4809 57.5545 57.4888 58.3129 59.5511 58.3129C61.5428 58.3129 63.163 56.6234 63.163 54.5467V52.0314C63.163 51.5829 62.8144 51.2193 62.3842 51.2193C61.954 51.2193 61.6054 51.5829 61.6054 52.0314V54.5467C61.6054 55.7278 60.6838 56.6888 59.5511 56.6888C57.8527 56.6888 56.1989 56.0641 54.8945 54.93L46.6141 47.7307V31.4155L54.8945 24.2162C56.199 23.082 57.8527 22.4575 59.5511 22.4575C60.6838 22.4575 61.6054 23.4184 61.6054 24.5995V48.1112C61.6054 48.5597 61.954 48.9233 62.3842 48.9233C62.8144 48.9233 63.163 48.5597 63.163 48.1112V43.8618C64.8903 43.486 66.192 41.8863 66.192 39.9752V39.1713C66.1921 37.2603 64.8904 35.6605 63.1631 35.2847ZM31.1351 47.2991H27.8058C27.1602 47.2991 26.6349 46.7515 26.6349 46.0783V43.9456H27.763C28.1932 43.9456 28.5418 43.582 28.5418 43.1335C28.5418 42.685 28.1932 42.3215 27.763 42.3215H26.6348V33.0683C26.6348 32.3951 27.1602 31.8474 27.8057 31.8474H31.1351V47.2991ZM40.9757 48.9233V52.5394H35.6118C35.4633 51.2216 34.9296 49.9398 34.1117 48.9233H40.9757ZM43.5531 54.1625C44.4284 54.1625 44.9028 55.3227 44.2753 55.977C44.0817 56.1781 43.8252 56.2889 43.5531 56.2889C42.5784 56.2889 42.5341 57.913 43.5531 57.913C44.1154 57.913 44.5728 58.3905 44.5728 58.9774C44.5728 59.2608 44.4668 59.5278 44.2743 59.7296C44.0809 59.9302 43.8248 60.0408 43.5531 60.0408C42.5784 60.0408 42.5341 61.6649 43.5531 61.6649C44.1154 61.6649 44.5728 62.1419 44.5728 62.7282C44.5728 63.012 44.4665 63.2794 44.2753 63.4794C44.0817 63.6806 43.8252 63.7914 43.5531 63.7914C42.5784 63.7914 42.5341 65.4155 43.5531 65.4155C44.1154 65.4155 44.5728 65.8925 44.5728 66.4788C44.5728 66.7626 44.4665 67.03 44.2753 67.23C44.0817 67.4312 43.8252 67.542 43.5531 67.542H30.9893C29.0469 67.542 27.4794 66.2612 25.5719 66.0578V54.1635H29.1202C29.2337 54.1635 29.3457 54.1377 29.4485 54.0879L33.9104 51.9248C34.0365 52.3874 34.0994 52.8706 34.0994 53.3515C34.0994 53.7999 34.448 54.1635 34.8782 54.1635L43.5531 54.1625ZM64.6345 39.9752C64.6345 40.9836 64.0213 41.8455 63.1631 42.1766V36.97C64.0213 37.3011 64.6345 38.1629 64.6345 39.1714V39.9752Z" fill="#404040"/>
<path d="M34.8098 35.4934V38.5146C34.8098 38.963 35.1584 39.3266 35.5886 39.3266H42.1602C42.5904 39.3266 42.939 38.963 42.939 38.5146V35.4934C42.939 35.045 42.5904 34.6814 42.1602 34.6814H35.5886C35.1584 34.6814 34.8098 35.045 34.8098 35.4934ZM36.3674 36.3055H41.3814V37.7025H36.3674V36.3055Z" fill="#404040"/>
<path d="M71.3046 38.9693H69.5276C69.0974 38.9693 68.7488 39.3329 68.7488 39.7813C68.7488 40.2298 69.0974 40.5934 69.5276 40.5934H71.3046C71.7348 40.5934 72.0834 40.2298 72.0834 39.7813C72.0834 39.3329 71.7348 38.9693 71.3046 38.9693Z" fill="#404040"/>
<path d="M68.6857 36.313C68.7898 36.313 68.8957 36.291 68.9973 36.2448L70.6255 35.5024C71.0196 35.3226 71.1994 34.8438 71.0271 34.433C70.8547 34.0221 70.3955 33.8347 70.0014 34.0143L68.3732 34.7568C67.9791 34.9365 67.7994 35.4153 67.9717 35.8261C68.0997 36.1311 68.3857 36.313 68.6857 36.313Z" fill="#404040"/>
<path d="M70.6255 44.0604L68.9973 43.318C68.6035 43.1384 68.144 43.3256 67.9717 43.7365C67.7994 44.1475 67.979 44.6262 68.3732 44.806L70.0014 45.5484C70.103 45.5948 70.2088 45.6166 70.3131 45.6166C70.6132 45.6166 70.8992 45.4347 71.027 45.1297C71.1994 44.7189 71.0197 44.2401 70.6255 44.0604Z" fill="#404040"/>
</svg>
