<svg class="w-24 h-24      " viewBox="0 0 91 90" fill="none" xmlns="http://www.w3.org/2000/svg">
<rect x="0.5" width="90" height="90" rx="45" fill="#ECF1FF"/>
<path d="M44.0418 62.2218C43.9042 61.5441 43.6142 60.9066 43.1936 60.3577C42.773 59.8088 42.2329 59.3629 41.6143 59.0538L36.2904 56.7809V56.6418C35.0333 57.2296 33.6624 57.5342 32.2747 57.5342C30.887 57.5342 29.5162 57.2296 28.259 56.6418V56.7809L22.9351 59.0538C22.2355 59.4033 21.6376 59.9271 21.1991 60.5747C20.7606 61.2223 20.4962 61.9719 20.4314 62.7514V68.5401H44.118V62.7514C44.1038 62.5734 44.0784 62.3965 44.0418 62.2218V62.2218Z" fill="#4579FF"/>
<path d="M26.0687 59.0538L30.1786 57.299C29.517 57.1493 28.8735 56.929 28.259 56.6418V56.7808L22.9351 59.0537C22.2355 59.4032 21.6376 59.9271 21.1991 60.5747C20.7606 61.2223 20.4962 61.9719 20.4314 62.7514V68.5401H23.565V62.7514C23.6298 61.972 23.8942 61.2224 24.3327 60.5747C24.7712 59.9271 25.369 59.4033 26.0687 59.0538V59.0538Z" fill="#7DA1FF"/>
<path d="M70.5687 25.4723V60.1327C70.5688 60.4071 70.5148 60.6788 70.4099 60.9323C70.3049 61.1858 70.151 61.4161 69.957 61.6101C69.763 61.8041 69.5327 61.958 69.2792 62.0629C69.0257 62.1679 68.754 62.2219 68.4797 62.2218H44.042C43.9045 61.5441 43.6144 60.9066 43.1938 60.3577C42.7732 59.8088 42.2331 59.3629 41.6146 59.0537L38.1927 57.5935V51.4538L38.1917 51.4528C39.6794 49.8809 40.5071 47.798 40.5042 45.6337V44.56C40.7975 44.5081 41.077 44.3967 41.3255 44.2325C41.5739 44.0683 41.7861 43.8548 41.9487 43.6054C42.1113 43.3559 42.221 43.0757 42.271 42.7821C42.321 42.4885 42.3101 42.1877 42.2392 41.8985C42.158 41.5627 41.9726 41.2611 41.7095 41.0371C41.4465 40.813 41.1193 40.678 40.7748 40.6513H40.57V37.3454C40.5727 35.1277 39.7213 32.9942 38.1927 31.3875V25.4723C38.1927 24.9183 38.4128 24.3869 38.8046 23.9952C39.1963 23.6034 39.7277 23.3833 40.2817 23.3833H45.4427V25.0514H64.3632V23.3833H68.4797C69.0337 23.3833 69.5651 23.6034 69.9568 23.9952C70.3486 24.3869 70.5687 24.9183 70.5687 25.4723V25.4723Z" fill="#EFFFF7"/>
<path d="M48.8289 42.4845C52.2901 42.4845 55.096 39.6786 55.096 36.2174C55.096 32.7561 52.2901 29.9502 48.8289 29.9502C45.3677 29.9502 42.5618 32.7561 42.5618 36.2174C42.5618 39.6786 45.3677 42.4845 48.8289 42.4845Z" fill="#43D68F"/>
<path d="M44.6508 36.2172C44.6513 34.7364 45.176 33.3036 46.132 32.1726C47.0879 31.0417 48.4133 30.2856 49.8734 30.0385C48.9745 29.886 48.0532 29.9314 47.1736 30.1716C46.2941 30.4119 45.4776 30.8411 44.7811 31.4294C44.0845 32.0177 43.5248 32.7509 43.1408 33.5779C42.7568 34.4048 42.5579 35.3056 42.5579 36.2173C42.5579 37.129 42.7568 38.0298 43.1408 38.8567C43.5248 39.6837 44.0845 40.4169 44.7811 41.0052C45.4776 41.5935 46.2941 42.0227 47.1736 42.2629C48.0532 42.5032 48.9745 42.5486 49.8734 42.3961C48.4132 42.1491 47.0877 41.3931 46.1317 40.2621C45.1757 39.1311 44.6511 37.6981 44.6508 36.2172V36.2172Z" fill="#2DAD70"/>
<path d="M40.5698 40.6514V40.7475C40.5698 40.7475 33.1736 42.051 28.2142 37.6316C27.1957 37.7173 26.1731 37.7432 25.1516 37.7089L24.9208 41.4974C24.9185 41.5262 24.9092 41.554 24.8936 41.5783C24.878 41.6026 24.8567 41.6227 24.8314 41.6368C24.8062 41.6508 24.7779 41.6584 24.749 41.6589C24.7202 41.6594 24.6916 41.6527 24.6659 41.6395L23.6423 41.1141C23.5342 41.0584 23.4423 40.9758 23.3753 40.8742C23.3084 40.7727 23.2687 40.6557 23.26 40.5344V37.3455C23.26 35.05 24.1719 32.8486 25.795 31.2255C27.4181 29.6024 29.6195 28.6906 31.9149 28.6906C34.2103 28.6906 36.4118 29.6024 38.0349 31.2255C39.658 32.8486 40.5698 35.05 40.5698 37.3455V40.6514Z" fill="#4A5160"/>
<path d="M27.8841 31.2256C29.2528 29.8546 31.0432 28.9842 32.9668 28.7545C32.6177 28.712 32.2665 28.6907 31.9149 28.6906C29.6195 28.6906 27.4182 29.6025 25.7951 31.2256C24.172 32.8487 23.2601 35.0501 23.26 37.3455V40.5344C23.2687 40.6557 23.3084 40.7727 23.3753 40.8743C23.4423 40.9758 23.5342 41.0584 23.6423 41.1141L24.6659 41.6395C24.6916 41.6527 24.7202 41.6594 24.749 41.6589C24.7779 41.6584 24.8062 41.6508 24.8314 41.6367C24.8566 41.6227 24.878 41.6026 24.8936 41.5783C24.9092 41.554 24.9185 41.5262 24.9208 41.4975C24.9208 41.4975 24.4709 34.6384 27.8841 31.2256V31.2256Z" fill="#58606D"/>
<path d="M36.2904 52.9642V56.642C35.0332 57.2297 33.6624 57.5342 32.2747 57.5342C30.887 57.5342 29.5162 57.2297 28.259 56.642V53.2379C29.5162 53.859 30.9077 54.1591 32.3091 54.1114C33.7106 54.0636 35.0784 53.6695 36.2904 52.9642V52.9642Z" fill="#EFC597"/>
<path d="M30.3481 56.6418V53.9504C29.6235 53.8055 28.9211 53.5659 28.259 53.2379V56.6418C29.8371 57.3796 31.5879 57.6683 33.3192 57.4763C32.2899 57.3624 31.2862 57.0805 30.3481 56.6418V56.6418Z" fill="#D8AD82"/>
<path d="M36.2904 52.9642C35.0014 53.7152 33.537 54.113 32.0452 54.1174C30.5533 54.1218 29.0867 53.7325 27.7933 52.989C26.4999 52.2455 25.4255 51.174 24.6786 49.8826C23.9316 48.5912 23.5385 47.1256 23.5388 45.6337V44.56C23.2458 44.5077 22.9665 44.3959 22.7183 44.2316C22.47 44.0673 22.258 43.8539 22.0954 43.6046C21.9328 43.3552 21.8229 43.0752 21.7726 42.7818C21.7223 42.4884 21.7326 42.1878 21.8028 41.8985C21.8843 41.5626 22.0699 41.261 22.3331 41.037C22.5963 40.813 22.9237 40.678 23.2683 40.6514L23.2777 40.6493C23.3014 40.7484 23.3462 40.8413 23.4091 40.9216C23.4721 41.0018 23.5516 41.0675 23.6422 41.1141L24.6659 41.6395C24.6916 41.6527 24.7201 41.6594 24.749 41.6589C24.7779 41.6584 24.8062 41.6508 24.8314 41.6368C24.8566 41.6227 24.878 41.6026 24.8936 41.5783C24.9092 41.554 24.9185 41.5262 24.9207 41.4974L25.1516 37.7089C26.1731 37.7432 27.1957 37.7174 28.2141 37.6317C33.1735 42.051 40.5698 40.7475 40.5698 40.7475V40.6514H40.7745C41.119 40.678 41.4462 40.8131 41.7093 41.0371C41.9723 41.2611 42.1577 41.5627 42.2389 41.8985C42.3099 42.1878 42.3207 42.4885 42.2707 42.7821C42.2208 43.0757 42.1111 43.3559 41.9484 43.6054C41.7858 43.8549 41.5737 44.0683 41.3252 44.2325C41.0768 44.3967 40.7972 44.5082 40.504 44.56V45.6337C40.5069 47.798 39.6791 49.8809 38.1914 51.4527C38.136 51.5133 38.0775 51.5729 38.019 51.6314C37.5026 52.1482 36.9215 52.5961 36.2904 52.9642V52.9642Z" fill="#FFD8B7"/>
<path d="M30.348 53.2378C28.9305 52.5364 27.7374 51.4527 26.9033 50.109C26.0693 48.7653 25.6275 47.2152 25.6278 45.6337V44.56C25.3347 44.5077 25.0555 44.396 24.8072 44.2316C24.559 44.0673 24.347 43.8539 24.1844 43.6046C24.0217 43.3553 23.9118 43.0753 23.8615 42.7818C23.8112 42.4884 23.8215 42.1878 23.8918 41.8985C23.9382 41.7076 24.0184 41.5264 24.1286 41.3637L23.6422 41.1144C23.5515 41.0678 23.472 41.0021 23.4091 40.9219C23.3461 40.8416 23.3013 40.7488 23.2776 40.6496L23.2682 40.6517C22.9236 40.6783 22.5962 40.8133 22.333 41.0373C22.0698 41.2614 21.8842 41.5629 21.8028 41.8988C21.7319 42.1882 21.7211 42.4889 21.7712 42.7826C21.8212 43.0762 21.931 43.3564 22.0938 43.6059C22.2565 43.8554 22.4687 44.0688 22.7173 44.233C22.9658 44.3971 23.2454 44.5085 23.5388 44.5603V45.634C23.5382 46.7481 23.7572 47.8514 24.1833 48.8808C24.6094 49.9102 25.2342 50.8455 26.022 51.6333C26.8098 52.4211 27.7451 53.0459 28.7745 53.472C29.8039 53.8981 30.9072 54.1171 32.0213 54.1166C32.3699 54.1163 32.7182 54.0947 33.0642 54.052C32.1193 53.9359 31.2009 53.6606 30.348 53.2378V53.2378Z" fill="#E8BC9E"/>
<path d="M45.4426 21.4604H64.3631V25.0514H45.4426V21.4604Z" fill="#737373"/>
<path d="M68.4794 22.757H64.9892V21.4601C64.9892 21.2938 64.9231 21.1344 64.8056 21.0169C64.6881 20.8994 64.5287 20.8333 64.3624 20.8333H45.4428C45.2766 20.8333 45.1172 20.8994 44.9996 21.0169C44.8821 21.1344 44.8161 21.2938 44.8161 21.4601V22.757H40.2813C39.5613 22.7578 38.8709 23.0441 38.3618 23.5533C37.8526 24.0624 37.5663 24.7528 37.5655 25.4728V29.9885C36.1922 28.932 34.5504 28.2813 32.8261 28.1101C31.1019 27.9389 29.3642 28.2541 27.8099 29.0199C26.2556 29.7857 24.9469 30.9715 24.032 32.443C23.1171 33.9145 22.6327 35.6128 22.6336 37.3455V40.1545C22.2793 40.2785 21.9619 40.4896 21.7104 40.7682C21.459 41.0469 21.2815 41.3843 21.1944 41.7494C21.0323 42.4122 21.1173 43.1114 21.4335 43.7161C21.7496 44.3208 22.2753 44.7895 22.9121 45.0346V45.634C22.9132 47.2648 23.3518 48.8654 24.1821 50.269C25.0124 51.6726 26.204 52.8278 27.6328 53.6141V56.3674L22.6887 58.4773C22.6771 58.4823 22.6657 58.4877 22.6546 58.4932C21.8607 58.8933 21.1823 59.4899 20.6839 60.226C20.1855 60.9622 19.8836 61.8136 19.8069 62.6993C19.8054 62.7165 19.8047 62.7339 19.8047 62.7515V68.5403C19.8047 68.7065 19.8707 68.8659 19.9882 68.9835C20.1058 69.101 20.2652 69.167 20.4314 69.167H44.1179C44.2841 69.167 44.4435 69.101 44.5611 68.9835C44.6786 68.8659 44.7446 68.7065 44.7446 68.5403V62.8486H68.4794C69.1994 62.8478 69.8898 62.5615 70.3989 62.0523C70.908 61.5432 71.1944 60.8529 71.1952 60.1329V25.4726C71.1944 24.7526 70.908 24.0623 70.3988 23.5532C69.8897 23.0442 69.1994 22.7578 68.4794 22.757V22.757ZM46.0695 22.0868H63.7357V24.4249H46.0695V22.0868ZM23.887 37.3455C23.887 36.2912 24.0946 35.2473 24.4981 34.2734C24.9015 33.2994 25.4928 32.4144 26.2383 31.669C26.9837 30.9235 27.8687 30.3322 28.8427 29.9288C29.8167 29.5253 30.8606 29.3177 31.9148 29.3177C32.969 29.3177 34.0129 29.5253 34.9869 29.9288C35.9608 30.3322 36.8458 30.9235 37.5913 31.669C38.3367 32.4144 38.928 33.2994 39.3315 34.2734C39.7349 35.2473 39.9426 36.2912 39.9426 37.3455V40.1987C38.3896 40.3665 33.6488 40.6198 29.842 38.0956C32.4577 37.747 35.6462 36.9439 38.011 35.1303C38.0782 35.081 38.1349 35.0187 38.1777 34.9472C38.2205 34.8756 38.2487 34.7962 38.2604 34.7137C38.2722 34.6311 38.2674 34.5471 38.2462 34.4664C38.2251 34.3858 38.1881 34.3101 38.1373 34.2439C38.0866 34.1778 38.0232 34.1224 37.9507 34.081C37.8783 34.0397 37.7984 34.0132 37.7156 34.0032C37.6329 33.9931 37.5489 33.9996 37.4687 34.0224C37.3885 34.0452 37.3136 34.0838 37.2485 34.1359C32.9464 37.4354 25.261 37.0874 25.1843 37.0833C25.0193 37.0749 24.8577 37.132 24.7345 37.242C24.6113 37.352 24.5365 37.5062 24.5262 37.671L24.3382 40.7663L23.9293 40.5563C23.9187 40.551 23.9095 40.5433 23.9023 40.5339C23.8951 40.5246 23.89 40.5137 23.8875 40.5021L23.887 37.3455ZM24.1656 45.634V44.5601C24.1656 44.4126 24.1136 44.2698 24.0187 44.1569C23.9239 44.044 23.7922 43.9681 23.647 43.9427C23.4383 43.9056 23.2394 43.8261 23.0626 43.7091C22.8858 43.5921 22.7349 43.4402 22.6192 43.2626C22.5034 43.085 22.4253 42.8856 22.3896 42.6766C22.354 42.4677 22.3615 42.2536 22.4118 42.0477C22.4455 41.899 22.5135 41.7602 22.6104 41.6425C22.7073 41.5247 22.8305 41.4314 22.97 41.3698C23.0789 41.4935 23.21 41.5959 23.3565 41.6715L24.3801 42.197C24.4975 42.2573 24.628 42.2877 24.76 42.2855C24.892 42.2833 25.0214 42.2485 25.1368 42.1842C25.2521 42.12 25.3498 42.0283 25.4211 41.9172C25.4925 41.8061 25.5353 41.6792 25.5458 41.5476C25.5458 41.5436 25.5464 41.5397 25.5466 41.5358L25.7406 38.3515C26.2524 38.3564 27.044 38.348 28.0062 38.2809C33.1249 42.6353 40.3688 41.4195 40.6786 41.3651C40.7435 41.3531 40.8062 41.331 40.8641 41.2994C41.0502 41.3377 41.2213 41.4286 41.3572 41.5612C41.4932 41.6938 41.5882 41.8627 41.6311 42.0477C41.6815 42.2536 41.6891 42.4677 41.6535 42.6766C41.6178 42.8856 41.5397 43.0851 41.424 43.2626C41.3082 43.4402 41.1573 43.5922 40.9805 43.7092C40.8037 43.8261 40.6048 43.9056 40.3961 43.9427C40.2508 43.9681 40.1192 44.044 40.0243 44.1569C39.9294 44.2698 39.8775 44.4126 39.8775 44.5601V45.634C39.8699 47.7125 39.0389 49.7032 37.5665 51.1703C36.0941 52.6373 34.1003 53.4611 32.0218 53.4611C29.9433 53.4611 27.9495 52.6373 26.4771 51.1703C25.0047 49.7032 24.1737 47.7125 24.1661 45.634H24.1656ZM37.5658 52.8558V56.6442L36.9166 56.3672V53.3128C37.1399 53.1699 37.3563 53.0175 37.5658 52.8558ZM35.6631 53.9829V56.233C33.4921 57.1246 31.0572 57.1246 28.8862 56.233V54.187C31.0872 54.9937 33.5146 54.9206 35.6631 53.9829V53.9829ZM43.4912 67.9138H21.0581V62.7778C21.1201 62.114 21.3489 61.4766 21.7233 60.9249C22.0976 60.3732 22.6054 59.9251 23.1994 59.6223L28.4182 57.395C30.8897 58.4081 33.6606 58.4081 36.1321 57.395L41.3511 59.6224C41.9449 59.9253 42.4524 60.3735 42.8266 60.9251C43.2007 61.4768 43.4294 62.1141 43.4912 62.7778V67.9138ZM69.9418 60.1331C69.9414 60.5208 69.7872 60.8925 69.5131 61.1667C69.2389 61.4409 68.8671 61.595 68.4794 61.5954H44.5235C44.3153 60.9287 43.9754 60.3105 43.5238 59.7776C43.0723 59.2447 42.5183 58.8079 41.8948 58.4932C41.8836 58.4874 41.8722 58.4827 41.8606 58.4773L38.8193 57.1792V51.6904C40.3092 50.0251 41.1322 47.8685 41.1304 45.634V45.0346C41.7672 44.7896 42.2929 44.3208 42.609 43.7162C42.9252 43.1115 43.0102 42.4124 42.8481 41.7496C42.7522 41.3475 42.5472 40.9797 42.2557 40.6867C41.9642 40.3937 41.5975 40.1868 41.196 40.0888V37.3455C41.1978 35.0572 40.351 32.8496 38.8193 31.1497V25.4726C38.8196 25.0849 38.9738 24.7131 39.248 24.439C39.5221 24.1648 39.8939 24.0106 40.2816 24.0103H44.8164V25.0514C44.8164 25.2177 44.8824 25.3771 45 25.4946C45.1175 25.6121 45.2769 25.6782 45.4431 25.6782H64.3624C64.5287 25.6782 64.6881 25.6121 64.8056 25.4946C64.9231 25.3771 64.9892 25.2177 64.9892 25.0514V24.0105H68.4794C68.8671 24.0108 69.2389 24.165 69.5131 24.4392C69.7872 24.7133 69.9414 25.0851 69.9418 25.4728V60.1331Z" fill="#404040"/>
<path d="M65.4071 41.4159H60.8252C60.659 41.4159 60.4996 41.4819 60.382 41.5994C60.2645 41.717 60.1985 41.8764 60.1985 42.0426C60.1985 42.2088 60.2645 42.3682 60.382 42.4857C60.4996 42.6033 60.659 42.6693 60.8252 42.6693H65.4071C65.5733 42.6693 65.7327 42.6033 65.8503 42.4857C65.9678 42.3682 66.0338 42.2088 66.0338 42.0426C66.0338 41.8764 65.9678 41.717 65.8503 41.5994C65.7327 41.4819 65.5733 41.4159 65.4071 41.4159V41.4159Z" fill="#404040"/>
<path d="M56.5884 42.6693H58.1254C58.2916 42.6693 58.451 42.6033 58.5685 42.4857C58.6861 42.3682 58.7521 42.2088 58.7521 42.0426C58.7521 41.8764 58.6861 41.717 58.5685 41.5994C58.451 41.4819 58.2916 41.4159 58.1254 41.4159H56.5884C56.4222 41.4159 56.2628 41.4819 56.1452 41.5994C56.0277 41.717 55.9617 41.8764 55.9617 42.0426C55.9617 42.2088 56.0277 42.3682 56.1452 42.4857C56.2628 42.6033 56.4222 42.6693 56.5884 42.6693V42.6693Z" fill="#404040"/>
<path d="M65.4071 48.1944H63.8513C63.6851 48.1944 63.5257 48.2604 63.4082 48.378C63.2906 48.4955 63.2246 48.6549 63.2246 48.8211C63.2246 48.9873 63.2906 49.1467 63.4082 49.2643C63.5257 49.3818 63.6851 49.4478 63.8513 49.4478H65.4071C65.5734 49.4478 65.7328 49.3818 65.8503 49.2643C65.9678 49.1467 66.0339 48.9873 66.0339 48.8211C66.0339 48.6549 65.9678 48.4955 65.8503 48.378C65.7328 48.2604 65.5734 48.1944 65.4071 48.1944Z" fill="#404040"/>
<path d="M61.6837 49.4478C61.8499 49.4478 62.0093 49.3818 62.1269 49.2643C62.2444 49.1467 62.3104 48.9873 62.3104 48.8211C62.3104 48.6549 62.2444 48.4955 62.1269 48.378C62.0093 48.2604 61.8499 48.1944 61.6837 48.1944H53.384C53.2178 48.1944 53.0584 48.2604 52.9409 48.378C52.8234 48.4955 52.7573 48.6549 52.7573 48.8211C52.7573 48.9873 52.8234 49.1467 52.9409 49.2643C53.0584 49.3818 53.2178 49.4478 53.384 49.4478H61.6837Z" fill="#404040"/>
<path d="M51.1862 48.1944H50.6262C50.46 48.1944 50.3006 48.2604 50.1831 48.378C50.0655 48.4955 49.9995 48.6549 49.9995 48.8211C49.9995 48.9873 50.0655 49.1467 50.1831 49.2643C50.3006 49.3818 50.46 49.4478 50.6262 49.4478H51.1862C51.3524 49.4478 51.5118 49.3818 51.6293 49.2643C51.7469 49.1467 51.8129 48.9873 51.8129 48.8211C51.8129 48.6549 51.7469 48.4955 51.6293 48.378C51.5118 48.2604 51.3524 48.1944 51.1862 48.1944Z" fill="#404040"/>
<path d="M44.3731 48.1944C44.2068 48.1944 44.0474 48.2604 43.9299 48.378C43.8124 48.4955 43.7463 48.6549 43.7463 48.8211C43.7463 48.9873 43.8124 49.1467 43.9299 49.2643C44.0474 49.3818 44.2068 49.4478 44.3731 49.4478H47.9263C48.0925 49.4478 48.2519 49.3818 48.3695 49.2643C48.487 49.1467 48.553 48.9873 48.553 48.8211C48.553 48.6549 48.487 48.4955 48.3695 48.378C48.2519 48.2604 48.0925 48.1944 47.9263 48.1944H44.3731Z" fill="#404040"/>
<path d="M65.4072 54.4595H61.8208C61.6546 54.4595 61.4952 54.5256 61.3777 54.6431C61.2601 54.7606 61.1941 54.92 61.1941 55.0862C61.1941 55.2525 61.2601 55.4119 61.3777 55.5294C61.4952 55.6469 61.6546 55.713 61.8208 55.713H65.4072C65.5734 55.713 65.7328 55.6469 65.8503 55.5294C65.9679 55.4119 66.0339 55.2525 66.0339 55.0862C66.0339 54.92 65.9679 54.7606 65.8503 54.6431C65.7328 54.5256 65.5734 54.4595 65.4072 54.4595Z" fill="#404040"/>
<path d="M59.5715 54.4595H59.1209C58.9546 54.4595 58.7952 54.5256 58.6777 54.6431C58.5602 54.7606 58.4941 54.92 58.4941 55.0862C58.4941 55.2525 58.5602 55.4119 58.6777 55.5294C58.7952 55.6469 58.9546 55.713 59.1209 55.713H59.5711C59.7374 55.713 59.8968 55.6469 60.0143 55.5294C60.1318 55.4119 60.1979 55.2525 60.1979 55.0862C60.1979 54.92 60.1318 54.7606 60.0143 54.6431C59.8968 54.5256 59.7374 54.4595 59.5711 54.4595H59.5715Z" fill="#404040"/>
<path d="M57.3571 54.4595H53.9504C53.7842 54.4595 53.6248 54.5256 53.5073 54.6431C53.3898 54.7606 53.3237 54.92 53.3237 55.0862C53.3237 55.2525 53.3898 55.4119 53.5073 55.5294C53.6248 55.6469 53.7842 55.713 53.9504 55.713H57.3572C57.5234 55.713 57.6828 55.6469 57.8003 55.5294C57.9178 55.4119 57.9839 55.2525 57.9839 55.0862C57.9839 54.92 57.9178 54.7606 57.8003 54.6431C57.6828 54.5256 57.5234 54.4595 57.3572 54.4595H57.3571Z" fill="#404040"/>
<path d="M51.1859 54.4595H44.3731C44.2068 54.4595 44.0474 54.5256 43.9299 54.6431C43.8124 54.7606 43.7463 54.92 43.7463 55.0862C43.7463 55.2525 43.8124 55.4119 43.9299 55.5294C44.0474 55.6469 44.2068 55.713 44.3731 55.713H51.1859C51.3522 55.713 51.5116 55.6469 51.6291 55.5294C51.7466 55.4119 51.8127 55.2525 51.8127 55.0862C51.8127 54.92 51.7466 54.7606 51.6291 54.6431C51.5116 54.5256 51.3522 54.4595 51.1859 54.4595Z" fill="#404040"/>
<path d="M65.4069 36.0798H65.0024C64.8362 36.0798 64.6768 36.1458 64.5593 36.2634C64.4418 36.3809 64.3757 36.5403 64.3757 36.7065C64.3757 36.8727 64.4418 37.0321 64.5593 37.1497C64.6768 37.2672 64.8362 37.3332 65.0024 37.3332H65.4069C65.5731 37.3332 65.7325 37.2672 65.85 37.1497C65.9676 37.0321 66.0336 36.8727 66.0336 36.7065C66.0336 36.5403 65.9676 36.3809 65.85 36.2634C65.7325 36.1458 65.5731 36.0798 65.4069 36.0798V36.0798Z" fill="#404040"/>
<path d="M57.8608 37.3332H62.303C62.4692 37.3332 62.6286 37.2672 62.7461 37.1497C62.8637 37.0321 62.9297 36.8727 62.9297 36.7065C62.9297 36.5403 62.8637 36.3809 62.7461 36.2634C62.6286 36.1458 62.4692 36.0798 62.303 36.0798H57.8608C57.6946 36.0798 57.5352 36.1458 57.4177 36.2634C57.3002 36.3809 57.2341 36.5403 57.2341 36.7065C57.2341 36.8727 57.3002 37.0321 57.4177 37.1497C57.5352 37.2672 57.6946 37.3332 57.8608 37.3332V37.3332Z" fill="#404040"/>
<path d="M65.407 30.8572H60.9294C60.7632 30.8572 60.6038 30.9232 60.4863 31.0407C60.3688 31.1583 60.3027 31.3177 60.3027 31.4839C60.3027 31.6501 60.3688 31.8095 60.4863 31.927C60.6038 32.0446 60.7632 32.1106 60.9294 32.1106H65.407C65.5732 32.1106 65.7326 32.0446 65.8502 31.927C65.9677 31.8095 66.0337 31.6501 66.0337 31.4839C66.0337 31.3177 65.9677 31.1583 65.8502 31.0407C65.7326 30.9232 65.5732 30.8572 65.407 30.8572Z" fill="#404040"/>
<path d="M57.8608 32.1106H58.2299C58.3961 32.1106 58.5555 32.0446 58.673 31.927C58.7906 31.8095 58.8566 31.6501 58.8566 31.4839C58.8566 31.3177 58.7906 31.1583 58.673 31.0407C58.5555 30.9232 58.3961 30.8572 58.2299 30.8572H57.8608C57.6946 30.8572 57.5352 30.9232 57.4177 31.0407C57.3002 31.1583 57.2341 31.3177 57.2341 31.4839C57.2341 31.6501 57.3002 31.8095 57.4177 31.927C57.5352 32.0446 57.6946 32.1106 57.8608 32.1106V32.1106Z" fill="#404040"/>
<path d="M48.8294 43.1115C50.1928 43.1115 51.5257 42.7072 52.6594 41.9497C53.7931 41.1922 54.6767 40.1155 55.1984 38.8558C55.7202 37.5961 55.8567 36.21 55.5907 34.8727C55.3247 33.5355 54.6682 32.3071 53.7041 31.343C52.7399 30.3789 51.5116 29.7223 50.1743 29.4563C48.837 29.1903 47.4509 29.3268 46.1912 29.8486C44.9315 30.3704 43.8549 31.254 43.0974 32.3877C42.3399 33.5213 41.9355 34.8542 41.9355 36.2177C41.9376 38.0454 42.6646 39.7977 43.957 41.0901C45.2494 42.3825 47.0017 43.1094 48.8294 43.1115ZM48.8294 30.5773C49.9449 30.5773 51.0355 30.9081 51.963 31.5278C52.8906 32.1476 53.6135 33.0285 54.0404 34.0592C54.4673 35.0898 54.579 36.2239 54.3614 37.3181C54.1438 38.4122 53.6066 39.4172 52.8177 40.2061C52.0289 40.9949 51.0239 41.5321 49.9298 41.7497C48.8356 41.9673 47.7015 41.8557 46.6709 41.4287C45.6402 41.0018 44.7593 40.2789 44.1396 39.3513C43.5198 38.4238 43.189 37.3332 43.189 36.2177C43.1907 34.7223 43.7855 33.2886 44.8429 32.2312C45.9003 31.1738 47.334 30.579 48.8294 30.5773V30.5773Z" fill="#404040"/>
<path d="M46.9903 38.9501C47.1078 39.0676 47.2672 39.1336 47.4334 39.1336C47.5997 39.1336 47.7591 39.0676 47.8766 38.9501L52.455 34.3717C52.5709 34.2538 52.6356 34.0949 52.6349 33.9296C52.6342 33.7643 52.5683 33.6059 52.4514 33.489C52.3345 33.3721 52.1761 33.3061 52.0108 33.3055C51.8454 33.3048 51.6865 33.3695 51.5687 33.4854L47.4335 37.6206L46.09 36.2772C46.0321 36.2177 45.963 36.1703 45.8866 36.1378C45.8103 36.1052 45.7282 36.0882 45.6452 36.0876C45.5621 36.087 45.4798 36.103 45.403 36.1345C45.3262 36.166 45.2565 36.2124 45.1977 36.2711C45.139 36.3298 45.0926 36.3996 45.0611 36.4764C45.0296 36.5532 45.0136 36.6355 45.0142 36.7185C45.0147 36.8015 45.0318 36.8836 45.0643 36.96C45.0969 37.0363 45.1443 37.1055 45.2037 37.1634L46.9903 38.9501Z" fill="#404040"/>
</svg>
