<svg width="32" height="32" viewBox="0 0 32 32" fill="none" xmlns="http://www.w3.org/2000/svg">
<g clip-path="url(#clip0_24_2147)">
<path d="M32 16C32 7.16344 24.8366 0 16 0C7.16344 0 0 7.16344 0 16C0 24.8366 7.16344 32 16 32C24.8366 32 32 24.8366 32 16Z" fill="white"/>
<path opacity="0.1" d="M28.042 5.47368C25.7094 9.75579 22.4105 14.1726 18.2884 18.2947C14.1663 22.4168 9.74941 25.7095 5.47363 28.0421C5.20556 27.8091 4.94521 27.5663 4.69257 27.3137C3.16554 25.8376 1.94764 24.0723 1.10991 22.1207C0.272184 20.1691 -0.168619 18.0702 -0.186792 15.9465C-0.204965 13.8227 0.199856 11.7166 1.00407 9.75097C1.80827 7.7853 2.99578 5.99942 4.49733 4.49744C5.99889 2.99547 7.78444 1.80746 9.74988 1.00271C11.7153 0.197947 13.8213 -0.207462 15.9451 -0.189881C18.0688 -0.172301 20.1678 0.267916 22.1196 1.1051C24.0715 1.94229 25.8371 3.15969 27.3136 4.68631C27.5663 4.93894 27.8091 5.2014 28.042 5.47368Z" fill="white"/>
<path d="M19.7894 7.57895H12.2104C10.9821 7.57895 9.804 8.06692 8.93542 8.93551C8.06683 9.8041 7.57886 10.9822 7.57886 12.2105V19.7895C7.57886 21.0178 8.06683 22.1959 8.93542 23.0645C9.804 23.9331 10.9821 24.4211 12.2104 24.4211H19.7894C21.0178 24.4211 22.1958 23.9331 23.0644 23.0645C23.933 22.1959 24.421 21.0178 24.421 19.7895V12.2105C24.421 10.9822 23.933 9.8041 23.0644 8.93551C22.1958 8.06692 21.0178 7.57895 19.7894 7.57895ZM22.9473 19.1242C22.9473 20.1382 22.5445 21.1106 21.8275 21.8276C21.1105 22.5446 20.1381 22.9474 19.1241 22.9474H12.8757C11.8617 22.9474 10.8893 22.5446 10.1723 21.8276C9.45534 21.1106 9.05254 20.1382 9.05254 19.1242V12.8758C9.05254 11.8618 9.45534 10.8894 10.1723 10.1724C10.8893 9.45543 11.8617 9.05263 12.8757 9.05263H19.1241C20.1381 9.05263 21.1105 9.45543 21.8275 10.1724C22.5445 10.8894 22.9473 11.8618 22.9473 12.8758V19.1242Z" fill="#4579FF"/>
<path d="M19.0714 12.96L19.0314 12.92L18.9978 12.8863C18.2017 12.0931 17.1236 11.6479 15.9999 11.6484C15.4324 11.6523 14.8712 11.7679 14.3484 11.9887C13.8256 12.2095 13.3515 12.5311 12.953 12.9353C12.5546 13.3394 12.2397 13.818 12.0263 14.3439C11.8129 14.8697 11.7052 15.4325 11.7093 16C11.7085 17.1517 12.1625 18.2571 12.9725 19.0758C13.3693 19.4774 13.8421 19.7959 14.3633 20.0128C14.8845 20.2297 15.4437 20.3405 16.0083 20.3389C16.8551 20.3212 17.6784 20.0574 18.3779 19.5797C19.0774 19.1021 19.6227 18.4312 19.9475 17.6489C20.2722 16.8666 20.3623 16.0068 20.2067 15.1742C20.0512 14.3416 19.6567 13.5722 19.0714 12.96ZM15.9999 18.8547C15.4336 18.8627 14.8778 18.702 14.4031 18.3932C13.9284 18.0844 13.5563 17.6413 13.3341 17.1204C13.1119 16.5996 13.0496 16.0244 13.1552 15.468C13.2608 14.9116 13.5295 14.3992 13.9271 13.996C14.3247 13.5927 14.8332 13.3168 15.3881 13.2034C15.9429 13.09 16.5189 13.1441 17.0429 13.3589C17.5668 13.5738 18.0151 13.9396 18.3306 14.4099C18.6461 14.8802 18.8145 15.4337 18.8146 16C18.8174 16.3723 18.7467 16.7415 18.6068 17.0865C18.4668 17.4315 18.2602 17.7455 17.9988 18.0106C17.7374 18.2757 17.4263 18.4868 17.0833 18.6316C16.7403 18.7764 16.3722 18.8522 15.9999 18.8547Z" fill="#4579FF"/>
<path d="M21.5642 11.4484C21.5653 11.5835 21.5397 11.7175 21.489 11.8427C21.4382 11.9679 21.3633 12.0819 21.2685 12.1781C21.1736 12.2743 21.0607 12.3509 20.9363 12.4034C20.8118 12.4559 20.6782 12.4834 20.5431 12.4842C20.4091 12.4841 20.2765 12.4575 20.1529 12.4058C20.0293 12.3541 19.9172 12.2785 19.8231 12.1831C19.6805 12.0384 19.5835 11.8551 19.5441 11.6557C19.5047 11.4564 19.5247 11.2499 19.6016 11.0618C19.6785 10.8738 19.8089 10.7124 19.9766 10.5977C20.1444 10.4831 20.3421 10.4202 20.5452 10.4168C20.783 10.4168 21.0132 10.5002 21.1957 10.6526L21.2168 10.6737C21.2507 10.7013 21.2818 10.7324 21.3094 10.7663L21.3326 10.7916C21.4833 10.9772 21.5651 11.2093 21.5642 11.4484Z" fill="#4579FF"/>
</g>
<defs>
<clipPath id="clip0_24_2147">
<rect width="32" height="32" fill="white"/>
</clipPath>
</defs>
</svg>
