<svg width="32" height="32" viewBox="0 0 32 32" fill="none" xmlns="http://www.w3.org/2000/svg">
<g clip-path="url(#clip0_24_2144)">
<path d="M16 32C24.8366 32 32 24.8366 32 16C32 7.16344 24.8366 0 16 0C7.16344 0 0 7.16344 0 16C0 24.8366 7.16344 32 16 32Z" fill="white"/>
<path fill-rule="evenodd" clip-rule="evenodd" d="M25.5214 22.6741C25.6897 22.6739 25.8511 22.6069 25.9701 22.4879C26.0891 22.3689 26.156 22.2075 26.1562 22.0392V10.0481L16.4511 17.755C16.3228 17.857 16.1638 17.9125 15.9999 17.9125C15.8361 17.9125 15.677 17.857 15.5488 17.755L5.84375 10.0481V22.0392C5.84393 22.2076 5.91087 22.3689 6.02988 22.4879C6.14889 22.607 6.31025 22.6739 6.47856 22.6741H25.5214ZM24.7327 9.32587L16 16.2606L7.26719 9.32587H24.7327Z" fill="#4579FF"/>
</g>
<defs>
<clipPath id="clip0_24_2144">
<rect width="32" height="32" fill="white"/>
</clipPath>
</defs>
</svg>
