<svg width="160" height="148" viewBox="0 0 160 148" fill="none" xmlns="http://www.w3.org/2000/svg">
<g clip-path="url(#clip0_24_2158)">
<path d="M75.4318 1.23495L70.5358 3.88165L10.2164 36.4896L5.3204 39.1363C2.94472 40.424 1.18159 42.5928 0.417834 45.1668C-0.345924 47.7409 -0.0479436 50.51 1.24641 52.8666L46.1649 134.432C47.4646 136.786 49.6536 138.533 52.2516 139.29C54.8496 140.046 57.6445 139.751 60.0231 138.469L60.0358 138.462L130.122 100.574L130.134 100.567C132.51 99.2797 134.273 97.111 135.037 94.5369C135.801 91.9629 135.503 89.1937 134.208 86.8371L89.29 5.27139C87.9903 2.91762 85.8014 1.17076 83.2033 0.414041C80.6053 -0.342677 77.8104 -0.0474516 75.4318 1.23495Z" fill="#F2F2F2"/>
<path d="M76.84 3.79201L71.0411 6.92684L12.5274 38.5586L6.72854 41.6934C5.03675 42.6104 3.78118 44.1548 3.23729 45.9879C2.6934 47.8209 2.9056 49.7929 3.82733 51.4711L48.7458 133.037C49.6714 134.713 51.2302 135.957 53.0803 136.496C54.9304 137.035 56.9207 136.824 58.6146 135.911L58.6272 135.904L128.713 98.0167L128.726 98.0098C130.418 97.0928 131.673 95.5484 132.217 93.7153C132.761 91.8823 132.549 89.9104 131.627 88.2322L86.7087 6.66648C85.7832 4.99032 84.2244 3.74634 82.3743 3.20746C80.5242 2.66858 78.5339 2.8788 76.84 3.79201Z" fill="white"/>
<path d="M77.8068 29.11L51.6674 43.2407C51.2714 43.4548 50.8058 43.5042 50.373 43.3781C49.9402 43.2521 49.5757 42.9609 49.3597 42.5685C49.1436 42.1762 49.0937 41.7149 49.2209 41.2861C49.3481 40.8573 49.6421 40.4961 50.0381 40.282L76.1775 26.1514C76.5735 25.9373 77.0391 25.8879 77.4719 26.0139C77.9047 26.14 78.2692 26.4312 78.4853 26.8236C78.7014 27.2159 78.7513 27.6772 78.624 28.106C78.4968 28.5348 78.2029 28.896 77.8069 29.11H77.8068Z" fill="#EEF6FF"/>
<path d="M86.7154 30.7733L54.4169 48.2334C54.0209 48.4475 53.5553 48.4969 53.1225 48.3709C52.6897 48.2448 52.3252 47.9536 52.1092 47.5612C51.8931 47.1689 51.8432 46.7076 51.9704 46.2788C52.0977 45.85 52.3916 45.4888 52.7876 45.2747L85.086 27.8146C85.2821 27.7086 85.4974 27.6419 85.7194 27.6183C85.9415 27.5947 86.1661 27.6147 86.3804 27.6771C86.5947 27.7396 86.7945 27.8432 86.9684 27.9821C87.1423 28.121 87.2868 28.2925 87.3938 28.4868C87.5008 28.681 87.5681 28.8943 87.5919 29.1143C87.6157 29.3344 87.5955 29.5569 87.5326 29.7692C87.4696 29.9815 87.365 30.1795 87.2248 30.3518C87.0845 30.524 86.9115 30.6673 86.7154 30.7733H86.7154Z" fill="#EEF6FF"/>
<path d="M40.9213 37.3586L16.8223 50.3862C16.6326 50.4889 16.4917 50.6619 16.4308 50.8674C16.3698 51.0728 16.3937 51.2938 16.4972 51.4818L26.7592 70.1162C26.8627 70.3041 27.0374 70.4436 27.2448 70.504C27.4521 70.5644 27.6752 70.5408 27.8649 70.4382L51.964 57.4106C52.1537 57.308 52.2945 57.1349 52.3554 56.9295C52.4164 56.7241 52.3925 56.503 52.289 56.315L42.0271 37.6807C41.9235 37.4928 41.7488 37.3532 41.5415 37.2928C41.3341 37.2324 41.111 37.2561 40.9213 37.3586Z" fill="#EEF6FF"/>
<path d="M90.7766 52.754L55.3217 71.9204C55.1256 72.0264 54.9104 72.0931 54.6883 72.1167C54.4662 72.1403 54.2416 72.1203 54.0273 72.0579C53.813 71.9955 53.6132 71.8919 53.4394 71.7529C53.2655 71.614 53.1209 71.4425 53.0139 71.2483C52.907 71.054 52.8396 70.8408 52.8158 70.6207C52.792 70.4007 52.8122 70.1782 52.8752 69.9658C52.9382 69.7535 53.0428 69.5556 53.183 69.3833C53.3232 69.211 53.4963 69.0678 53.6924 68.9618L89.1472 49.7954C89.5432 49.5813 90.0088 49.5318 90.4416 49.6579C90.8744 49.784 91.2389 50.0752 91.455 50.4675C91.6711 50.8599 91.721 51.3212 91.5937 51.75C91.4665 52.1788 91.1726 52.5399 90.7766 52.754H90.7766Z" fill="#EEF6FF"/>
<path d="M99.6851 54.4172L58.0712 76.9132C57.6752 77.1272 57.2096 77.1767 56.7768 77.0506C56.344 76.9246 55.9795 76.6333 55.7635 76.241C55.5474 75.8487 55.4975 75.3874 55.6247 74.9586C55.7519 74.5298 56.0459 74.1686 56.4419 73.9545L98.0558 51.4586C98.4518 51.2445 98.9174 51.1951 99.3502 51.3211C99.783 51.4472 100.148 51.7384 100.364 52.1307C100.58 52.5231 100.63 52.9844 100.502 53.4132C100.375 53.842 100.081 54.2032 99.6851 54.4172H99.6851Z" fill="#EEF6FF"/>
<path d="M41.8188 87.6172C45.8042 87.6172 49.0349 84.4162 49.0349 80.4677C49.0349 76.5191 45.8042 73.3182 41.8188 73.3182C37.8335 73.3182 34.6028 76.5191 34.6028 80.4677C34.6028 84.4162 37.8335 87.6172 41.8188 87.6172Z" fill="#EEF6FF"/>
<path d="M149.786 34.8436H69.9175C67.2096 34.8467 64.6134 35.9138 62.6986 37.811C60.7837 39.7081 59.7067 42.2803 59.7036 44.9633V137.88C59.7067 140.563 60.7837 143.136 62.6986 145.033C64.6134 146.93 67.2096 147.997 69.9175 148H149.786C152.494 147.997 155.09 146.93 157.005 145.033C158.92 143.136 159.997 140.563 160 137.88V44.9633C159.997 42.2803 158.92 39.7081 157.005 37.811C155.09 35.9138 152.494 34.8467 149.786 34.8436Z" fill="#E6E6E6"/>
<path d="M149.786 37.7569H69.9175C67.9891 37.759 66.1403 38.519 64.7767 39.87C63.4131 41.221 62.6461 43.0527 62.6439 44.9633V137.88C62.6461 139.791 63.4131 141.623 64.7767 142.974C66.1403 144.325 67.9891 145.085 69.9175 145.087H149.786C151.715 145.085 153.563 144.325 154.927 142.974C156.291 141.623 157.058 139.791 157.06 137.88V44.9633C157.058 43.0527 156.291 41.221 154.927 39.87C153.563 38.519 151.715 37.759 149.786 37.7569Z" fill="white"/>
<path d="M138.396 60.4407H108.618C108.167 60.4407 107.735 60.2632 107.416 59.9471C107.097 59.6311 106.917 59.2025 106.917 58.7555C106.917 58.3086 107.097 57.8799 107.416 57.5639C107.735 57.2479 108.167 57.0703 108.618 57.0703H138.396C138.619 57.0701 138.84 57.1135 139.047 57.198C139.254 57.2826 139.441 57.4067 139.6 57.5632C139.758 57.7197 139.883 57.9056 139.969 58.1102C140.054 58.3148 140.098 58.534 140.098 58.7555C140.098 58.977 140.054 59.1963 139.969 59.4008C139.883 59.6054 139.758 59.7913 139.6 59.9478C139.441 60.1043 139.254 60.2284 139.047 60.313C138.84 60.3976 138.619 60.441 138.396 60.4407Z" fill="#5DA8FF"/>
<path d="M145.412 66.1282H108.618C108.167 66.1282 107.735 65.9507 107.416 65.6347C107.097 65.3186 106.917 64.89 106.917 64.443C106.917 63.9961 107.097 63.5675 107.416 63.2514C107.735 62.9354 108.167 62.7578 108.618 62.7578H145.412C145.863 62.7578 146.295 62.9354 146.614 63.2514C146.933 63.5675 147.113 63.9961 147.113 64.443C147.113 64.89 146.933 65.3186 146.614 65.6347C146.295 65.9507 145.863 66.1282 145.412 66.1282Z" fill="#5DA8FF"/>
<path d="M102.029 50.1777H74.5757C74.3596 50.1777 74.1523 50.2628 73.9995 50.4143C73.8467 50.5657 73.7608 50.771 73.7607 50.9852V72.2128C73.7608 72.4269 73.8467 72.6323 73.9995 72.7837C74.1523 72.9351 74.3596 73.0202 74.5757 73.0203H102.029C102.245 73.0202 102.452 72.9351 102.605 72.7837C102.758 72.6323 102.843 72.4269 102.844 72.2128V50.9852C102.843 50.771 102.758 50.5657 102.605 50.4143C102.452 50.2628 102.245 50.1777 102.029 50.1777Z" fill="#E6E6E6"/>
<path d="M82.1062 63.2129C82.1175 65.005 81.4509 66.7362 80.2377 68.0653C79.0373 69.3706 77.2502 70.2362 75.4468 69.878C73.7862 69.5483 72.4368 68.1103 72.6052 66.3707C72.6331 65.9939 72.7436 65.6277 72.9291 65.2975C73.1145 64.9674 73.3703 64.6813 73.6788 64.4592C73.9873 64.2371 74.3409 64.0843 74.7151 64.0115C75.0893 63.9387 75.475 63.9476 75.8453 64.0376C77.4228 64.4432 78.0514 66.6957 76.7368 67.753C76.4214 68.0067 75.9683 67.563 76.2866 67.307C77.1556 66.608 76.8871 65.079 75.8383 64.6955C74.6171 64.2491 73.3233 65.2093 73.2355 66.4462C73.1314 67.9127 74.2653 69.0172 75.6559 69.2772C77.1602 69.5585 78.6517 68.7956 79.671 67.7427C80.8392 66.5201 81.4838 64.8965 81.4695 63.2129C81.4724 63.1312 81.5072 63.0537 81.5666 62.9969C81.6259 62.94 81.7053 62.9083 81.7879 62.9083C81.8704 62.9083 81.9498 62.94 82.0092 62.9969C82.0686 63.0537 82.1034 63.1312 82.1062 63.2129Z" fill="#2F2E41"/>
<path d="M88.3235 67.2232C94.5967 67.2232 99.6822 62.1847 99.6822 55.9693C99.6822 49.7539 94.5967 44.7153 88.3235 44.7153C82.0502 44.7153 76.9647 49.7539 76.9647 55.9693C76.9647 62.1847 82.0502 67.2232 88.3235 67.2232Z" fill="#5DA8FF"/>
<path d="M87.7424 60.7712L87.7306 60.3506C88.5203 60.3289 89.2165 60.2798 89.7396 59.9011C89.8879 59.7877 90.0098 59.6439 90.097 59.4796C90.1842 59.3153 90.2347 59.1343 90.245 58.9489C90.2542 58.8357 90.2369 58.7218 90.1945 58.6163C90.152 58.5107 90.0856 58.4163 90.0003 58.3403C89.653 58.0497 89.0943 58.1437 88.687 58.3288L88.3358 58.4883L89.0093 53.6119L89.4298 53.669L88.857 57.817C89.4103 57.6558 89.9231 57.7252 90.2743 58.0191C90.4092 58.1357 90.515 58.2817 90.5835 58.4456C90.652 58.6094 90.6813 58.7868 90.6691 58.9637C90.6568 59.2128 90.5896 59.4561 90.4722 59.6767C90.3549 59.8973 90.1903 60.0899 89.99 60.2408C89.3178 60.7275 88.4443 60.7517 87.7424 60.7712Z" fill="#2F2E41"/>
<path d="M93.7956 54.0267H91.5095V54.4472H93.7956V54.0267Z" fill="#2F2E41"/>
<path d="M86.5795 54.0267H84.2935V54.4472H86.5795V54.0267Z" fill="#2F2E41"/>
<path d="M82.0316 73.0203C82.883 72.485 83.8032 72.0656 84.7674 71.7733C84.6754 71.4493 84.6768 71.1062 84.7716 70.7829C84.8996 70.3745 85.1574 70.0181 85.5067 69.7669C85.8559 69.5156 86.2778 69.383 86.7093 69.3888H89.4769C89.9092 69.3833 90.3317 69.5162 90.6816 69.7678C91.0315 70.0194 91.2901 70.3761 91.4189 70.785C91.5137 71.1076 91.5151 71.45 91.4231 71.7733C92.3871 72.066 93.3072 72.4854 94.1588 73.0203H82.0316Z" fill="#0F325C"/>
<path d="M101.335 51.7926C101.128 51.5443 100.873 51.3392 100.585 51.1891C100.333 51.0586 100.053 50.9901 99.7683 50.9894C99.3774 50.9941 98.998 51.1207 98.6838 51.351C97.8199 51.9566 97.2214 53.2625 97.2214 54.7744C97.2214 56.6711 98.1638 58.244 99.3884 58.5173C99.5131 58.5451 99.6405 58.5592 99.7683 58.5594C101.171 58.5594 102.315 56.8625 102.315 54.7744C102.315 53.5632 101.931 52.4845 101.335 51.7926Z" fill="#0F325C"/>
<path d="M78.0055 51.2606H78.0034C77.7197 51.0861 77.3929 50.9922 77.0589 50.9894C76.7743 50.9901 76.4941 51.0586 76.2418 51.1891C75.9542 51.3392 75.6996 51.5443 75.4926 51.7926L75.4905 51.7947C74.8962 52.4865 74.5121 53.5653 74.5121 54.7744C74.5121 56.4061 75.2082 57.7982 76.1845 58.3302C76.4517 58.4786 76.7526 58.5574 77.0589 58.5594C77.127 58.5594 77.1951 58.5552 77.2627 58.5468H77.2647C78.5722 58.3912 79.6058 56.7594 79.6058 54.7744C79.6058 53.1847 78.9415 51.82 78.0055 51.2606Z" fill="#0F325C"/>
<path d="M76.3436 57.9683C76.3942 57.9683 76.444 57.9563 76.4889 57.9335C76.5339 57.9106 76.5727 57.8774 76.6022 57.8368C76.6316 57.7961 76.6509 57.7491 76.6584 57.6995C76.6659 57.65 76.6614 57.5994 76.6453 57.552C76.0369 55.7593 75.8538 53.8518 76.1105 51.9777C76.3671 50.1035 77.0564 48.3132 78.1249 46.746C79.1934 45.1787 80.6122 43.8766 82.2712 42.941C83.9301 42.0053 85.7845 41.4613 87.6902 41.3511C89.5959 41.2409 91.5015 41.5676 93.259 42.3058C95.0166 43.044 96.5786 44.1737 97.8238 45.6072C99.069 47.0408 99.9638 48.7395 100.439 50.5713C100.914 52.4032 100.956 54.3189 100.562 56.1695C100.544 56.2513 100.56 56.3367 100.606 56.4068C100.653 56.4769 100.725 56.5259 100.808 56.5432C100.89 56.5605 100.976 56.5445 101.047 56.4988C101.118 56.4532 101.167 56.3815 101.185 56.2997C101.599 54.354 101.555 52.3398 101.056 50.4137C100.557 48.4877 99.6163 46.7016 98.3071 45.1943C96.998 43.687 95.3557 42.4991 93.5078 41.7229C91.6599 40.9468 89.6563 40.6033 87.6527 40.7192C85.649 40.835 83.6993 41.4072 81.9552 42.391C80.211 43.3749 78.7193 44.744 77.596 46.392C76.4728 48.0399 75.7482 49.9223 75.4787 51.8928C75.2092 53.8634 75.4019 55.8689 76.042 57.7537C76.0633 57.8162 76.1038 57.8705 76.158 57.9091C76.2121 57.9476 76.277 57.9683 76.3436 57.9683Z" fill="#0F325C"/>
<path d="M94.0295 48.6777C94.4793 49.286 94.2576 50.1058 93.7837 50.6302C93.1671 51.3127 92.1837 51.3557 91.3299 51.2291C90.3718 51.0869 89.3555 50.6422 88.3855 50.9419C87.5588 51.1973 86.969 51.9403 86.1101 52.1269C85.3484 52.2924 84.4375 52.0733 84.1705 51.2689C84.0422 50.8824 84.6568 50.7167 84.7844 51.1012C84.9572 51.6216 85.7031 51.6112 86.1303 51.4671C86.8152 51.2361 87.343 50.6742 88.0161 50.4058C88.8098 50.0893 89.6708 50.2322 90.4788 50.4124C91.2403 50.5823 92.1168 50.8343 92.8755 50.5169C93.4369 50.282 93.8836 49.5422 93.4798 48.9961C93.2373 48.6683 93.7896 48.3532 94.0295 48.6777Z" fill="#2F2E41"/>
<path d="M138.351 87.3509H97.9616C97.7383 87.3509 97.5171 87.3073 97.3107 87.2226C97.1044 87.138 96.9169 87.0138 96.7589 86.8573C96.601 86.7009 96.4757 86.5151 96.3902 86.3106C96.3047 86.1062 96.2607 85.887 96.2607 85.6657C96.2607 85.4444 96.3047 85.2253 96.3902 85.0208C96.4757 84.8164 96.601 84.6306 96.7589 84.4741C96.9169 84.3176 97.1044 84.1935 97.3107 84.1088C97.5171 84.0241 97.7383 83.9805 97.9616 83.9805H138.351C138.801 83.981 139.234 84.1588 139.552 84.4748C139.871 84.7908 140.05 85.2191 140.05 85.6657C140.05 86.1123 139.871 86.5407 139.552 86.8567C139.234 87.1727 138.801 87.3504 138.351 87.3509Z" fill="#BEDCFF"/>
<path d="M145.367 93.0385H97.9617C97.7382 93.0387 97.5168 92.9953 97.3102 92.9107C97.1036 92.8262 96.9159 92.7021 96.7578 92.5455C96.5996 92.389 96.4742 92.2032 96.3886 91.9986C96.303 91.794 96.2589 91.5747 96.2589 91.3533C96.2589 91.1318 96.303 90.9125 96.3886 90.7079C96.4742 90.5034 96.5996 90.3175 96.7578 90.161C96.9159 90.0045 97.1036 89.8804 97.3102 89.7958C97.5168 89.7112 97.7382 89.6678 97.9617 89.6681H145.367C145.59 89.6678 145.812 89.7112 146.018 89.7958C146.225 89.8804 146.413 90.0045 146.571 90.161C146.729 90.3175 146.854 90.5034 146.94 90.7079C147.026 90.9125 147.07 91.1318 147.07 91.3533C147.07 91.5747 147.026 91.794 146.94 91.9986C146.854 92.2032 146.729 92.389 146.571 92.5455C146.413 92.7021 146.225 92.8262 146.018 92.9107C145.812 92.9953 145.59 93.0387 145.367 93.0385Z" fill="#BEDCFF"/>
<path d="M138.351 107.793H97.9616C97.5105 107.793 97.0779 107.615 96.7589 107.299C96.4399 106.983 96.2607 106.555 96.2607 106.108C96.2607 105.661 96.4399 105.232 96.7589 104.916C97.0779 104.6 97.5105 104.422 97.9616 104.422H138.351C138.802 104.422 139.234 104.6 139.553 104.916C139.872 105.232 140.052 105.661 140.052 106.108C140.052 106.555 139.872 106.983 139.553 107.299C139.234 107.615 138.802 107.793 138.351 107.793Z" fill="#BEDCFF"/>
<path d="M145.367 113.48H97.9616C97.5105 113.48 97.0779 113.303 96.7589 112.987C96.4399 112.671 96.2607 112.242 96.2607 111.795C96.2607 111.348 96.4399 110.92 96.7589 110.604C97.0779 110.288 97.5105 110.11 97.9616 110.11H145.367C145.818 110.11 146.251 110.288 146.57 110.604C146.889 110.92 147.068 111.348 147.068 111.795C147.068 112.242 146.889 112.671 146.57 112.987C146.251 113.303 145.818 113.48 145.367 113.48Z" fill="#BEDCFF"/>
<path d="M81.9764 95.5957C85.9617 95.5957 89.1925 92.3948 89.1925 88.4462C89.1925 84.4977 85.9617 81.2968 81.9764 81.2968C77.9911 81.2968 74.7604 84.4977 74.7604 88.4462C74.7604 92.3948 77.9911 95.5957 81.9764 95.5957Z" fill="#BEDCFF"/>
<path d="M81.9764 116.203C85.9617 116.203 89.1925 113.002 89.1925 109.054C89.1925 105.105 85.9617 101.904 81.9764 101.904C77.9911 101.904 74.7604 105.105 74.7604 109.054C74.7604 113.002 77.9911 116.203 81.9764 116.203Z" fill="#BEDCFF"/>
<path d="M138.351 128.4H97.9616C97.5105 128.4 97.0779 128.223 96.7589 127.907C96.4399 127.591 96.2607 127.162 96.2607 126.715C96.2607 126.268 96.4399 125.839 96.7589 125.523C97.0779 125.207 97.5105 125.03 97.9616 125.03H138.351C138.802 125.03 139.234 125.207 139.553 125.523C139.872 125.839 140.052 126.268 140.052 126.715C140.052 127.162 139.872 127.591 139.553 127.907C139.234 128.223 138.802 128.4 138.351 128.4Z" fill="#BEDCFF"/>
<path d="M145.367 134.088H97.9616C97.5105 134.088 97.0779 133.91 96.7589 133.594C96.4399 133.278 96.2607 132.849 96.2607 132.402C96.2607 131.956 96.4399 131.527 96.7589 131.211C97.0779 130.895 97.5105 130.717 97.9616 130.717H145.367C145.818 130.717 146.251 130.895 146.57 131.211C146.889 131.527 147.068 131.956 147.068 132.402C147.068 132.849 146.889 133.278 146.57 133.594C146.251 133.91 145.818 134.088 145.367 134.088Z" fill="#BEDCFF"/>
<path d="M81.9764 136.81C85.9617 136.81 89.1925 133.609 89.1925 129.661C89.1925 125.712 85.9617 122.511 81.9764 122.511C77.9911 122.511 74.7604 125.712 74.7604 129.661C74.7604 133.609 77.9911 136.81 81.9764 136.81Z" fill="#BEDCFF"/>
</g>
<defs>
<clipPath id="clip0_24_2158">
<rect width="160" height="148" fill="white"/>
</clipPath>
</defs>
</svg>
